<?xml version="1.0" encoding="UTF-8"?>
<!DOCTYPE svg PUBLIC "-//W3C//DTD SVG 1.0//EN" "http://www.w3.org/TR/2001/REC-SVG-20010904/DTD/svg10.dtd">
<!-- Creator: CorelDRAW X8 -->
<svg xmlns="http://www.w3.org/2000/svg" xml:space="preserve" width="61.6901mm" height="38.9469mm" version="1.0" style="shape-rendering:geometricPrecision; text-rendering:geometricPrecision; image-rendering:optimizeQuality; fill-rule:evenodd; clip-rule:evenodd"
viewBox="0 0 6134 3872"
 xmlns:xlink="http://www.w3.org/1999/xlink">
 <defs>
  <style type="text/css">
   <![CDATA[
    .fil1 {fill:#898989}
    .fil0 {fill:#A82682;fill-rule:nonzero}
   ]]>
  </style>
 </defs>
 <g id="Layer_x0020_1">
  <metadata id="CorelCorpID_0Corel-Layer"/>
  <g id="_822960272">
   <path class="fil0" d="M171 440c31,32 65,75 91,111 126,173 236,332 335,482 116,177 216,341 305,500 146,262 254,515 371,790 112,262 87,322 24,449 -87,182 -258,398 -441,605 -132,149 -270,294 -387,417 -22,23 -37,39 -62,60 -23,19 -38,24 -65,12 -7,-3 -35,-26 -40,-36 0,-1 -1,-2 -1,-3 -10,-8 -22,-19 -25,-25 -13,-29 1,-54 18,-71 226,-209 836,-838 874,-1137 11,-84 -25,-153 -59,-256 -147,-447 -486,-1011 -759,-1409 -130,-189 -249,-352 -334,-462 -18,-25 -23,-35 -4,-52 18,-17 44,-27 69,-33 13,-3 29,-2 40,6 15,13 32,32 50,52zm179 -142c58,-6 110,37 115,95 5,58 -38,109 -96,114 -59,5 -111,-38 -116,-95 -5,-58 38,-109 97,-114z"/>
   <path class="fil0" d="M4502 1759l225 -44c-8,-25 -24,-44 -46,-57 -22,-12 -47,-16 -75,-11 -30,6 -54,19 -73,39 -18,21 -29,45 -31,73zm260 81l98 35c-5,17 -11,34 -19,49 -9,16 -19,31 -31,45 -21,25 -44,45 -71,60 -27,15 -56,26 -87,32 -64,13 -120,3 -168,-28 -48,-32 -78,-81 -92,-148 -17,-84 -8,-157 28,-221 36,-63 94,-103 175,-119 39,-7 75,-7 107,1 32,8 60,25 84,52 13,15 24,32 33,52 9,19 16,41 21,66 2,12 4,24 6,36 1,12 3,23 4,33l-346 69c6,37 21,66 46,86 25,20 58,26 98,18 14,-3 27,-7 40,-14 12,-6 23,-16 34,-27 9,-10 17,-21 24,-34 7,-14 12,-28 16,-43zm-895 -138l123 -24 150 254 101 -303 127 -26 -210 573 -291 -474zm-112 -257c19,-3 35,-1 50,9 15,9 24,24 28,43 5,24 2,44 -10,61 -12,17 -30,28 -54,33 -19,5 -36,2 -50,-8 -15,-11 -24,-25 -27,-44 -5,-22 -1,-43 11,-60 12,-18 29,-29 52,-34zm-34 286l112 -22 37 490 -111 22 -38 -490zm-79 100l-89 68c-5,-12 -13,-21 -23,-28 -11,-6 -22,-8 -35,-5 -13,3 -23,8 -29,16 -5,8 -7,18 -5,28 2,10 6,18 13,24 7,5 25,12 54,20 25,8 47,16 66,24 18,8 34,17 45,25 13,11 24,24 34,40 10,16 17,33 21,52 10,46 0,86 -29,120 -28,33 -69,54 -121,65 -41,8 -78,5 -112,-8 -35,-13 -62,-39 -82,-78l92 -62c8,19 19,32 34,40 16,9 33,11 52,7 17,-3 31,-11 40,-22 10,-12 13,-25 10,-41 -3,-12 -10,-22 -20,-32 -10,-9 -27,-17 -52,-24 -26,-7 -43,-12 -54,-16 -10,-5 -20,-10 -30,-15 -20,-10 -35,-22 -45,-36 -10,-13 -17,-31 -21,-52 -9,-44 -1,-82 23,-114 24,-32 60,-53 108,-63 36,-7 67,-5 94,8 26,12 46,32 61,59zm-799 73l111 -22 22 282c0,13 1,22 2,26 1,5 2,9 2,13 2,12 6,23 11,32 6,9 13,16 21,21 9,7 19,11 31,13 11,2 24,1 38,-2 16,-3 30,-8 43,-17 12,-8 22,-18 28,-29 7,-11 11,-23 13,-38 2,-16 3,-34 1,-56l-21 -282 112 -22 22 284c3,41 1,75 -6,101 -6,27 -17,51 -32,72 -18,23 -40,42 -66,57 -27,16 -54,26 -83,32 -20,4 -41,5 -62,4 -21,-1 -39,-4 -55,-8 -28,-9 -51,-24 -68,-44 -17,-21 -28,-46 -34,-75 -2,-9 -4,-19 -5,-28 -2,-10 -3,-20 -3,-30l-22 -284zm-208 -282l112 -22 62 815 -112 22 -62 -815zm-59 358l11 148c-18,-22 -40,-37 -66,-47 -26,-10 -53,-12 -82,-7 -47,10 -82,34 -106,72 -24,39 -31,82 -21,132 8,41 26,71 53,92 27,20 60,27 99,19 29,-6 55,-18 78,-37 24,-19 43,-43 57,-74l12 149c-20,17 -42,31 -64,40 -23,10 -47,18 -72,24 -42,7 -79,8 -110,2 -32,-6 -60,-19 -86,-40 -20,-16 -37,-36 -51,-59 -14,-24 -24,-51 -30,-82 -9,-45 -8,-89 2,-131 10,-42 28,-78 53,-110 20,-25 44,-45 72,-61 27,-17 61,-29 102,-37 28,-5 54,-8 78,-6 24,1 48,5 71,13zm-853 643l-38 -490 112 -22 4 42c14,-20 31,-37 52,-51 21,-15 45,-25 74,-30 30,-6 58,-6 84,1 26,7 47,19 63,37 8,11 16,22 22,35 6,13 10,26 13,42 1,6 2,13 3,21 1,8 2,19 3,33l23 300 -111 22 -23 -300c-1,-7 -2,-12 -2,-16 -1,-4 -2,-8 -2,-12 -1,-9 -5,-18 -9,-26 -5,-7 -10,-14 -16,-20 -9,-6 -18,-10 -29,-12 -10,-2 -22,-1 -35,2 -19,3 -34,9 -47,17 -13,7 -24,18 -32,31 -9,12 -14,25 -18,39 -3,14 -4,31 -2,50l22 285 -111 22zm-293 -730l119 -24 58 777 -118 23 -59 -776z"/>
   <path class="fil1" d="M5383 971l136 -26 67 892 -136 26 -67 -892zm751 -18l-201 39 57 765 -136 27 -57 -765 -201 40 -10 -128 538 -106 10 128z"/>
   <path class="fil1" d="M4919 316c59,-5 110,39 114,97 4,58 -40,108 -98,112 -59,5 -110,-39 -114,-97 -4,-58 40,-108 98,-112zm1025 2733c-25,-25 -49,-50 -73,-75 -131,-141 -240,-297 -363,-463 -209,-280 -389,-586 -522,-886 -110,-251 -165,-469 -117,-573 148,-315 405,-680 645,-971 23,-27 39,-48 64,-73 8,-7 28,-9 48,-8 10,0 22,0 33,1 18,2 37,6 51,13 16,7 27,16 27,27 0,11 -3,20 -9,29 -107,131 -220,274 -316,411 -142,203 -283,411 -375,606 -21,45 -10,152 29,285 133,445 659,1241 977,1564 17,18 57,63 54,88 -1,10 -3,15 -14,25 -20,17 -39,23 -50,28 -6,0 -16,3 -27,0 -7,1 -17,3 -28,-1 -14,-6 -29,-23 -34,-27z"/>
  </g>
 </g>
</svg>
